<svg width="49" height="55" viewBox="0 0 49 55" fill="none" xmlns="http://www.w3.org/2000/svg">
<path d="M40.5 24C40.5 32.5323 33.1417 39.5 24 39.5C14.8583 39.5 7.5 32.5323 7.5 24C7.5 15.4677 14.8583 8.5 24 8.5C33.1417 8.5 40.5 15.4677 40.5 24Z" fill="#FFE500" stroke="black"/>
<path opacity="0.7" d="M24 8V1" stroke="black" stroke-width="0.7" stroke-linecap="round"/>
<path d="M15 11L10 5" stroke="black" stroke-opacity="0.7" stroke-width="0.7" stroke-linecap="round"/>
<path d="M33 10.7274L37 5.99999" stroke="black" stroke-opacity="0.7" stroke-width="0.7" stroke-linecap="round"/>
<path opacity="0.7" d="M38 15.7408L45 13" stroke="black" stroke-width="0.7" stroke-linecap="round"/>
<path opacity="0.7" d="M1 28L7.51997 25" stroke="black" stroke-width="0.7" stroke-linecap="round"/>
<path opacity="0.7" d="M41 23L48 26" stroke="black" stroke-width="0.7" stroke-linecap="round"/>
<path opacity="0.7" d="M1 15L9.49148 15.792" stroke="black" stroke-width="0.7" stroke-linecap="round"/>
<g filter="url(#filter0_d_21_420)">
<path d="M37.7787 40.0025C34.7518 39.4222 11.3117 40.1679 11.3117 40.1679C5.7758 37.3288 5.09074 29.3877 13.4357 29.4775C15.2602 26.3271 14.7819 23.2416 18.6577 21.5327C22.5336 19.8238 27.5407 24.7421 27.5407 24.7421C29.4784 24.7606 30.2159 23.6649 32.5025 24.7895C34.7891 25.9141 35.0498 27.4788 35.0498 27.4788C35.0498 27.4788 35.4952 28.9534 35.6737 29.5064C35.8522 30.0595 37.8763 29.8032 37.8763 29.8032C46.6168 32.7434 40.8057 40.5828 37.7787 40.0025Z" fill="#D9D9D9"/>
<path d="M37.7787 40.0025C34.7518 39.4222 11.3117 40.1679 11.3117 40.1679C5.7758 37.3288 5.09074 29.3877 13.4357 29.4775C15.2602 26.3271 14.7819 23.2416 18.6577 21.5327C22.5336 19.8238 27.5407 24.7421 27.5407 24.7421C29.4784 24.7606 30.2159 23.6649 32.5025 24.7895C34.7891 25.9141 35.0498 27.4788 35.0498 27.4788C35.0498 27.4788 35.4952 28.9534 35.6737 29.5064C35.8522 30.0595 37.8763 29.8032 37.8763 29.8032C46.6168 32.7434 40.8057 40.5828 37.7787 40.0025Z" stroke="black" stroke-width="0.7" stroke-linecap="round"/>
</g>
<path d="M24.1304 12.8148L23.4559 13.2335L22.8067 13.7441L22.2156 14.3149L21.7155 14.9142L21.2407 15.6054L20.473 17.0447L19.9329 19.3112L19.6179 21.9422L19.6478 24.9961L20.1945 28.1908L16.3359 31.1609L16.345 32.0246L30.8631 31.6155L30.7921 30.7534L27.3753 28.0037L27.6326 26.8245L28.03 24.8703L28.2998 22.9811L28.4458 21.0951L28.4061 19.2139L27.9886 16.9415C27.7896 16.3193 27.2379 15.1443 27.2351 15.1098C27.2173 14.8943 26.5442 14.1096 26.2695 13.7156L25.7754 13.2039L25.2118 12.8175L24.6951 12.6767L24.1304 12.8148Z" fill="#D9D9D9" stroke="black"/>
<path d="M25.277 18.862C25.8439 19.449 25.8247 20.4882 25.1045 21.1837C24.3844 21.8791 23.3451 21.8621 22.7783 21.275C22.2114 20.688 22.2306 19.6488 22.9507 18.9534C23.6709 18.2579 24.7101 18.275 25.277 18.862Z" stroke="black"/>
<path d="M20.1905 28.1946L21.0205 31.8719" stroke="black"/>
<line y1="-0.5" x2="4.0528" y2="-0.5" transform="matrix(-0.346984 0.937871 -0.96031 -0.278936 27.379 27.9419)" stroke="black"/>
<line y1="-0.5" x2="4.43426" y2="-0.5" transform="matrix(0.130198 -0.991488 0.999013 0.0444118 23.1252 31.8171)" stroke="black"/>
<path d="M23.9829 31.7852L23.9735 27.4115" stroke="black"/>
<path d="M21.0211 33.4256C20.9996 32.8559 21.0017 31.9655 21.0017 31.9655L26.0364 31.7513L25.8472 32.8846C25.8472 32.8846 25.8113 33.8787 25.7006 34.5051C25.6023 35.061 25.3428 35.9069 25.3428 35.9069C25.3428 35.9069 25.0226 36.7727 24.7687 37.3063C24.4588 37.9577 23.8651 38.9183 23.8651 38.9183C23.8651 38.9183 23.5613 39.2041 23.3167 39.2366C22.9697 39.2828 22.6972 39.168 22.5147 38.8492L22.0474 38.0329C21.8649 37.7142 21.6405 36.947 21.6405 36.947C21.6405 36.947 21.391 36.3289 21.2865 35.9157C21.171 35.4595 21.1501 35.1926 21.0984 34.7241C21.0428 34.2195 21.0403 33.9334 21.0211 33.4256Z" fill="#FF6B00" stroke="black"/>
<path d="M22.0997 32.9238C22.1216 32.5128 22.2258 31.8714 22.2258 31.8714L24.7638 31.8053C24.7638 31.8053 24.7489 32.4637 24.7287 32.8861C24.7114 33.248 24.7159 33.4513 24.6721 33.8133C24.6251 34.2024 24.603 34.4248 24.488 34.8054C24.3819 35.1564 24.2601 35.3354 24.1257 35.6788C24.0158 35.9594 23.9426 36.1464 23.7709 36.4286C23.6695 36.5951 23.5679 36.7111 23.3806 36.7473C23.2283 36.7768 23.1317 36.724 23.0167 36.6334C22.7514 36.4243 22.6749 36.1997 22.5377 35.8745C22.3912 35.5272 22.398 35.2967 22.3176 34.9237C22.2276 34.5061 22.1443 34.2788 22.105 33.8493C22.0724 33.4919 22.0804 33.2866 22.0997 32.9238Z" fill="#FFC700" stroke="black" stroke-width="0.5"/>
<path d="M27 15H22C22.4545 14.3333 23.6364 13 24.7273 13C25.8182 13 26.697 14.3333 27 15Z" fill="#FF3F3F" stroke="black" stroke-width="0.5"/>
<defs>
<filter id="filter0_d_21_420" x="2.80426" y="20.8217" width="44.0369" height="27.699" filterUnits="userSpaceOnUse" color-interpolation-filters="sRGB">
<feFlood flood-opacity="0" result="BackgroundImageFix"/>
<feColorMatrix in="SourceAlpha" type="matrix" values="0 0 0 0 0 0 0 0 0 0 0 0 0 0 0 0 0 0 127 0" result="hardAlpha"/>
<feOffset dy="4"/>
<feGaussianBlur stdDeviation="2"/>
<feComposite in2="hardAlpha" operator="out"/>
<feColorMatrix type="matrix" values="0 0 0 0 0 0 0 0 0 0 0 0 0 0 0 0 0 0 0.25 0"/>
<feBlend mode="normal" in2="BackgroundImageFix" result="effect1_dropShadow_21_420"/>
<feBlend mode="normal" in="SourceGraphic" in2="effect1_dropShadow_21_420" result="shape"/>
</filter>
</defs>
</svg>
